<?xml version="1.0" encoding="UTF-8"?>
<svg version="1.1" xmlns="http://www.w3.org/2000/svg" width="204" height="204">
<path d="M0 0 C67.32 0 134.64 0 204 0 C204 67.32 204 134.64 204 204 C136.68 204 69.36 204 0 204 C0 136.68 0 69.36 0 0 Z " fill="#FEFEFE" transform="translate(0,0)"/>
<path d="M0 0 C0 29.04 0 58.08 0 88 C-12.37624962 81.24931839 -12.37624962 81.24931839 -17.4375 77.984375 C-18.51644531 77.29085937 -19.59539062 76.59734375 -20.70703125 75.8828125 C-21.79371094 75.17898437 -22.88039062 74.47515625 -24 73.75 C-25.12868524 73.02309422 -26.25759062 72.29653013 -27.38671875 71.5703125 C-31.27207164 69.06756408 -35.15451577 66.56365615 -39 64 C-41.12337771 63.63566627 -41.12337771 63.63566627 -43.44921875 63.5859375 C-44.21322998 63.55032715 -44.97724121 63.5147168 -45.7644043 63.47802734 C-46.72902588 63.44402832 -47.69364746 63.4100293 -48.6875 63.375 C-51.760625 63.25125 -54.83375 63.1275 -58 63 C-58 50.46 -58 37.92 -58 25 C-55.380625 25.165 -52.76125 25.33 -50.0625 25.5 C-36.85957892 25.4353547 -27.11289881 17.27134053 -16.75878906 9.93310547 C-13.25491596 7.47791368 -9.6616463 5.21005371 -6 3 C-5.030625 2.401875 -4.06125 1.80375 -3.0625 1.1875 C-1 0 -1 0 0 0 Z " fill="#000000" transform="translate(98,58)"/>
<path d="M0 0 C15.38222413 15.67109219 22.25499799 36.18225575 22.1784668 57.73095703 C21.93839094 78.02614995 14.19550998 97.24972297 0 112 C-2 112 -2 112 -3.7265625 110.390625 C-4.35304687 109.68421875 -4.97953125 108.9778125 -5.625 108.25 C-6.57246094 107.20585937 -6.57246094 107.20585937 -7.5390625 106.140625 C-9 104 -9 104 -9 100 C-7.42578125 97.5546875 -7.42578125 97.5546875 -5.3125 94.875 C6.59091811 78.97573483 8.85195359 61.71657909 6.56640625 42.3203125 C4.23937447 30.49725661 -1.3730326 19.4434149 -10 11 C-8.64763423 8.06120516 -7.10057341 5.70767089 -5 3.25 C-4.484375 2.63640625 -3.96875 2.0228125 -3.4375 1.390625 C-2 0 -2 0 0 0 Z " fill="#050505" transform="translate(142,46)"/>
<path d="M0 0 C4.79526437 3.28818128 7.35192893 6.94014728 10 12 C10.70576172 13.33998047 10.70576172 13.33998047 11.42578125 14.70703125 C16.57195556 25.9996222 17.30313685 39.50694439 13.19775391 51.28930664 C10.62925292 57.70231086 7.21902486 64.33699716 2 69 C-1 69 -1 69 -3.04296875 67.25 C-3.75066406 66.5075 -4.45835938 65.765 -5.1875 65 C-5.90292969 64.2575 -6.61835937 63.515 -7.35546875 62.75 C-8.16951172 61.88375 -8.16951172 61.88375 -9 61 C-8.43410156 60.04738281 -7.86820312 59.09476563 -7.28515625 58.11328125 C-6.5438972 56.84657274 -5.8030325 55.5796334 -5.0625 54.3125 C-4.50272461 53.37374023 -4.50272461 53.37374023 -3.93164062 52.41601562 C0.95527087 44.00700576 1.37998932 34.02674555 -0.8125 24.5625 C-2.74559548 18.76321355 -5.55425834 13.99038448 -9 9 C-6.03 6.03 -3.06 3.06 0 0 Z " fill="#060606" transform="translate(120,67)"/>
</svg>
